<?xml version="1.0" standalone="no"?>
<!DOCTYPE svg PUBLIC "-//W3C//DTD SVG 20010904//EN"
 "http://www.w3.org/TR/2001/REC-SVG-20010904/DTD/svg10.dtd">
<svg version="1.0" xmlns="http://www.w3.org/2000/svg"
 width="300.000000pt" height="300.000000pt" viewBox="0 0 300.000000 300.000000"
 preserveAspectRatio="xMidYMid meet">
<metadata>
Created by potrace 1.14, written by Peter Selinger 2001-2017
</metadata>
<g transform="translate(0.000000,300.000000) scale(0.100000,-0.100000)"
fill="#000000" stroke="none">
<path d="M86 2395 c-61 -16 -87 -46 -82 -95 6 -47 16 -70 30 -70 17 0 38 -38
24 -42 -18 -6 108 -128 180 -175 l63 -40 -36 -21 c-24 -15 -35 -29 -35 -45 0
-23 47 -77 67 -77 6 0 13 -4 15 -9 7 -17 186 -94 249 -106 98 -19 146 -26 173
-25 17 1 36 1 41 0 6 -1 55 0 110 1 55 1 141 3 190 4 186 3 223 -21 45 -30
-155 -7 -252 -14 -280 -20 -14 -3 -50 -9 -80 -15 -159 -29 -274 -109 -251
-174 9 -24 80 -68 99 -61 6 2 12 0 12 -5 0 -5 7 -7 15 -4 8 4 15 2 15 -3 0 -5
6 -10 13 -10 6 0 32 -4 57 -8 87 -15 293 -5 332 16 10 6 23 7 28 4 6 -3 10 -2
10 4 0 9 57 27 73 23 5 -2 6 2 3 7 -3 5 10 12 29 15 20 4 33 11 30 17 -4 5 -1
10 4 10 6 1 15 2 19 3 5 0 16 9 26 19 25 24 36 21 36 -9 0 -17 12 -38 33 -58
43 -41 42 -74 -6 -148 -38 -58 -46 -102 -27 -139 19 -35 37 -17 45 44 5 37 17
60 63 117 25 30 47 57 49 60 2 2 4 -34 3 -80 -1 -83 -2 -340 -2 -370 1 -122
36 -299 63 -316 6 -3 17 0 25 8 26 25 37 183 21 283 -12 78 -11 505 1 517 7 7
12 -1 17 -22 4 -17 26 -55 49 -83 23 -29 66 -97 95 -152 30 -55 65 -113 79
-130 30 -37 93 -68 107 -54 14 15 -36 100 -70 119 -28 16 -83 106 -105 175 -7
22 -16 45 -20 50 -4 6 -15 35 -25 65 -10 30 -29 77 -42 103 -17 35 -22 57 -18
78 7 33 17 36 36 13 20 -24 118 -96 164 -120 92 -49 207 -77 315 -77 80 0 199
13 229 25 14 6 31 10 37 10 5 -1 20 7 32 18 12 11 24 20 28 20 11 0 33 34 34
51 0 16 -55 83 -69 85 -3 0 -28 11 -56 23 -90 41 -236 66 -445 76 -25 1 -74 6
-110 11 l-65 8 55 6 c47 6 193 4 363 -3 26 -1 47 0 47 3 0 3 35 6 78 7 132 2
329 72 420 149 54 47 56 76 7 105 l-35 21 47 34 c26 19 52 34 57 34 5 0 7 3 4
6 -4 3 32 44 78 91 46 48 84 94 84 104 0 10 4 21 10 24 16 10 11 71 -8 95 -10
12 -40 28 -67 35 -47 12 -162 13 -212 0 -13 -3 -31 -7 -40 -9 -104 -24 -281
-106 -495 -227 -120 -69 -228 -136 -273 -171 -32 -24 -137 -113 -175 -147 -49
-44 -61 -48 -79 -27 -8 10 -6 19 10 40 11 14 22 38 23 53 4 31 -19 73 -40 73
-7 0 -34 7 -59 16 -42 14 -53 14 -120 -1 -83 -19 -95 -29 -100 -79 -3 -27 3
-41 22 -60 21 -21 23 -28 13 -41 -19 -23 -38 -18 -80 23 -20 20 -52 48 -70 62
-18 14 -40 32 -49 41 -83 82 -533 336 -721 408 -140 54 -286 71 -384 46z"/>
</g>
</svg>
